<svg id="Layer_1" data-name="Layer 1" xmlns="http://www.w3.org/2000/svg" viewBox="0 0 304.6423 370.4439"><defs><style>.cls-1{fill:#2d2e37;}</style></defs><title>logo-black-v</title><g id="_Group_" data-name="&lt;Group&gt;"><path id="_Compound_Path_" data-name="&lt;Compound Path&gt;" class="cls-1" d="M0,361.9244H4.8V334.6256H0v-7.8H20.0391a23.6007,23.6007,0,0,1,7.86.9c4.5586,1.6191,7.499,5.22,7.499,10.2588a10.2228,10.2228,0,0,1-5.1,9.18v.12c5.04,1.5605,6.8389,5.7,6.8389,9.84a12.2716,12.2716,0,0,1-9.5391,12,25.8733,25.8733,0,0,1-6.42.6H0Zm20.8193-18.4795c2.64,0,3.7793-1.8,3.7793-4.14a3.9713,3.9713,0,0,0-1.9795-3.72,6.8563,6.8563,0,0,0-2.64-.36H15.54v8.22Zm.9,17.88a4.8531,4.8531,0,0,0,1.9785-.36c1.6807-.72,2.58-2.7,2.58-4.68,0-2.58-1.4395-4.44-4.5-4.44H15.54v9.48Z"/><path id="_Compound_Path_2" data-name="&lt;Compound Path&gt;" class="cls-1" d="M50.5791,334.6256h-4.8v-7.8H66.1182v7.8h-4.8v18.7188a9.7129,9.7129,0,0,0,1.08,4.74c1.14,1.92,3.4795,3.06,6.42,3.06,2.8193,0,4.86-.8994,6.2393-3a8.8845,8.8845,0,0,0,1.1406-4.8V334.6256H71.3975v-7.8h20.34v7.8h-4.8v18.7188a18.22,18.22,0,0,1-3.54,11.16c-3.3594,4.08-8.9395,5.9395-14.6387,5.9395-6.18,0-11.46-2.1592-14.58-5.76-2.58-2.88-3.6-6.7793-3.6-11.34Z"/><path id="_Compound_Path_3" data-name="&lt;Compound Path&gt;" class="cls-1" d="M100.9785,361.9244h4.8V334.6256h-4.8v-7.8h19.38a31.0509,31.0509,0,0,1,8.5791.84c5.22,1.62,8.5791,5.76,8.5791,12.06a12.4692,12.4692,0,0,1-6.959,11.76v.12a8.2289,8.2289,0,0,1,.959.6,5.6805,5.6805,0,0,1,1.6807,1.9795l3.3,6.36a2.6958,2.6958,0,0,0,2.76,1.38h1.5v7.8h-7.08c-3.42,0-4.8594-.84-6.06-3.18l-5.22-10.02c-.72-1.3809-1.5-1.86-3.72-1.86h-2.1592v7.26h4.499v7.8H100.9785Zm20.3994-15.6592c3.3594,0,5.459-1.6807,5.459-5.58,0-1.9795-.4795-3.84-2.34-4.74a9.4952,9.4952,0,0,0-4.1387-.72h-3.84v11.04Z"/><path id="_Compound_Path_4" data-name="&lt;Compound Path&gt;" class="cls-1" d="M172.1377,326.106c7.8594,0,17.2793,2.9395,17.2793,8.3994v6.96h-9.6v-3.12c0-2.16-3.18-3.24-7.08-3.24-7.8594,0-12.4795,4.32-12.4795,12.42,0,7.9795,4.62,13.9189,13.0791,13.9189,2.88,0,7.4395-.72,7.4395-3.1191v-2.94H173.877v-7.8h16.499v14.2793c0,6.4209-12.1191,8.58-18.3594,8.58-13.1992,0-22.8584-9.4795-22.8584-22.4395C149.1582,335.1051,158.6982,326.106,172.1377,326.106Z"/><path id="_Compound_Path_5" data-name="&lt;Compound Path&gt;" class="cls-1" d="M200.8174,361.9244h4.7988V334.6256h-4.7988v-7.8H233.876v12.6592h-9v-4.26h-8.52v8.7h12.5391v8.3994H216.3564v9h9.24V357.064h9v12.66H200.8174Z"/><path id="_Compound_Path_6" data-name="&lt;Compound Path&gt;" class="cls-1" d="M245.0205,361.9244h4.8008V334.6256h-4.8008v-7.8h19.3809a31.04,31.04,0,0,1,8.5781.84c5.2207,1.62,8.58,5.76,8.58,12.06a12.4676,12.4676,0,0,1-6.959,11.76v.12a8.3115,8.3115,0,0,1,.959.6,5.669,5.669,0,0,1,1.68,1.9795l3.3008,6.36a2.6942,2.6942,0,0,0,2.76,1.38h1.5v7.8h-7.08c-3.42,0-4.8594-.84-6.0586-3.18l-5.2207-10.02c-.7207-1.3809-1.5-1.86-3.7207-1.86h-2.1582v7.26h4.5v7.8h-20.041Zm20.4-15.6592c3.3594,0,5.459-1.6807,5.459-5.58,0-1.9795-.48-3.84-2.34-4.74a9.4952,9.4952,0,0,0-4.1387-.72h-3.84v11.04Z"/><path id="_Compound_Path_7" data-name="&lt;Compound Path&gt;" class="cls-1" d="M.0018,299.4185h7.2V258.47h-7.2V246.7711h30.06c5.0391,0,8.1895.18,11.7891,1.35,6.84,2.4307,11.25,7.83,11.25,15.39,0,5.67-2.61,10.9795-7.65,13.77v.18c7.56,2.34,10.26,8.55,10.26,14.76,0,9.63-6.75,16.1094-14.31,17.999a38.78,38.78,0,0,1-9.6289.9H.0018ZM31.2313,271.7c3.96,0,5.6689-2.6992,5.6689-6.209,0-2.25-.8994-4.59-2.97-5.58a10.2756,10.2756,0,0,0-3.96-.54H23.3114V271.7Zm1.35,26.8193a7.29,7.29,0,0,0,2.97-.54c2.5205-1.08,3.87-4.05,3.87-7.02,0-3.87-2.16-6.66-6.75-6.66H23.3114v14.22Z"/><path id="_Compound_Path_8" data-name="&lt;Compound Path&gt;" class="cls-1" d="M65.71,299.4185h7.2V258.47h-7.2V246.7711H96.2186V258.47H89.0194v40.9482h7.1992v11.7H65.71Z"/><path id="_Compound_Path_9" data-name="&lt;Compound Path&gt;" class="cls-1" d="M120.1678,299.4185h7.2V259.3707h-7.65v9.09h-13.499V246.7711h58.4072v21.6895h-13.499v-9.09h-7.6494v40.0479h7.1992v11.7H120.1678Z"/><path id="_Compound_Path_10" data-name="&lt;Compound Path&gt;" class="cls-1" d="M175.6258,299.4185h7.2V258.47h-7.2V246.7711h49.5889V265.76h-13.5v-6.39H198.9354v13.05h18.81v12.5986h-18.81v13.5h13.8594v-6.39h13.5v18.9893H175.6258Z"/><path id="_Compound_Path_11" data-name="&lt;Compound Path&gt;" class="cls-1" d="M250.6942,288.26v4.77c0,3.33,4.23,5.22,9.27,5.22s8.64-1.71,8.64-5.22c0-4.95-7.1094-6.5693-13.8594-9.18-8.7295-3.42-16.9189-7.56-16.9189-19.3486,0-14.3105,11.6992-18.81,23.1289-18.81,10.9795,0,21.8691,4.14,21.8691,12.3291v9.54H268.4237v-4.05c0-2.52-3.42-3.87-7.47-3.87-3.6895,0-6.93,1.08-6.93,4.41,0,4.499,5.31,6.21,11.1592,8.37,9.81,3.3291,19.6191,7.4688,19.6191,19.6191,0,14.6689-12.5986,20.1582-24.8389,20.1582-11.9687,0-23.6689-5.31-23.6689-15.6592V288.26Z"/><path id="_Compound_Path_12" data-name="&lt;Compound Path&gt;" class="cls-1" d="M142.4024,0a113.46,113.46,0,0,0-108.16,147.4979L166.9489,70.8647,142.4024,56.6928,117.8535,70.866v20.6L93.3047,105.64V56.6928l49.0976-28.3463L191.5,56.6927l-.0016.0008.0016.0008V85.0366l-.0036.0021h0L44.2,170.0969A113.3923,113.3923,0,1,0,142.4024,0ZM191.5,113.3858v56.6928L142.4024,198.425,93.3047,170.0787V149.43l24.5488-14.1732v20.6487l24.5488,14.1733,24.5488-14.1733V127.5588l-17.8825-10.3244,24.5488-14.1732L191.5,113.3857Z"/><g id="_Group_2" data-name="&lt;Group&gt;"><path id="_Compound_Path_13" data-name="&lt;Compound Path&gt;" class="cls-1" d="M294.7211,228.1558a8.6944,8.6944,0,1,1-8.6944,8.6944,8.6944,8.6944,0,0,1,8.6944-8.6944m0-1.2269a9.9213,9.9213,0,1,0,9.9213,9.9213,9.9325,9.9325,0,0,0-9.9213-9.9213Z"/><g id="_Group_3" data-name="&lt;Group&gt;"><path id="_Compound_Path_14" data-name="&lt;Compound Path&gt;" class="cls-1" d="M290.7526,231.4341a19.4111,19.4111,0,0,1,3.095-.233,5.1965,5.1965,0,0,1,3.461.8985,2.8388,2.8388,0,0,1,.9651,2.2464,2.9913,2.9913,0,0,1-2.03,2.812v.05a2.854,2.854,0,0,1,1.564,2.1633,22.3865,22.3865,0,0,0,.882,3.1281h-2.1134a15.8941,15.8941,0,0,1-.7488-2.6456c-.3161-1.4644-.8486-1.93-2.0133-1.9634h-1.0315v4.609h-2.03Zm2.03,4.9586h1.2146c1.3811,0,2.2464-.7323,2.2464-1.8471,0-1.2311-.8653-1.797-2.1965-1.797a5.8859,5.8859,0,0,0-1.2645.1Z"/></g></g></g></svg>