<svg id="Layer_1" data-name="Layer 1" xmlns="http://www.w3.org/2000/svg" viewBox="0 0 489.7247 170.0786"><defs><style>.cls-1{fill:#2d2e37;}</style></defs><title>logo-black-h</title><g id="_Group_" data-name="&lt;Group&gt;"><path id="_Compound_Path_" data-name="&lt;Compound Path&gt;" class="cls-1" d="M85.0395,0a85.0952,85.0952,0,0,0-81.12,110.6235l99.53-57.4749L85.0395,42.52l-18.4116,10.63V68.6L48.2163,79.23V42.52L85.0395,21.26l36.823,21.26-.0012.0006.0012.0006V63.7774l-.0027.0016h0L11.3877,127.5727A85.0442,85.0442,0,1,0,85.0395,0Zm36.823,85.0394v42.52l-36.823,21.26-36.8232-21.26V112.0723l18.4116-10.63V116.929l18.4116,10.63,18.4116-10.63v-21.26h0L90.0392,87.9258l18.4116-10.63,13.4116,7.7433Z"/><path id="_Compound_Path_2" data-name="&lt;Compound Path&gt;" class="cls-1" d="M185.08,138.3562h4.8V111.0574h-4.8v-7.8h20.0391a23.6007,23.6007,0,0,1,7.86.9c4.5586,1.6191,7.499,5.22,7.499,10.2588a10.2228,10.2228,0,0,1-5.1,9.18v.12c5.04,1.5605,6.8389,5.7,6.8389,9.84a12.2716,12.2716,0,0,1-9.5391,12,25.8733,25.8733,0,0,1-6.42.6H185.08Zm20.8193-18.4795c2.64,0,3.7793-1.8,3.7793-4.14a3.9713,3.9713,0,0,0-1.9795-3.72,6.8563,6.8563,0,0,0-2.64-.36H200.62v8.22Zm.9,17.88a4.8531,4.8531,0,0,0,1.9785-.36c1.6807-.72,2.58-2.7,2.58-4.68,0-2.58-1.4395-4.44-4.5-4.44H200.62v9.48Z"/><path id="_Compound_Path_3" data-name="&lt;Compound Path&gt;" class="cls-1" d="M235.6587,111.0574h-4.8v-7.8h20.3389v7.8h-4.8v18.7188a9.7129,9.7129,0,0,0,1.08,4.74c1.14,1.92,3.4795,3.06,6.42,3.06,2.8193,0,4.86-.8994,6.2393-3a8.8845,8.8845,0,0,0,1.1406-4.8V111.0574h-4.8008v-7.8h20.34v7.8h-4.8v18.7188a18.22,18.22,0,0,1-3.54,11.16c-3.3594,4.08-8.9395,5.9395-14.6387,5.9395-6.18,0-11.46-2.1592-14.58-5.76-2.58-2.88-3.6-6.7793-3.6-11.34Z"/><path id="_Compound_Path_4" data-name="&lt;Compound Path&gt;" class="cls-1" d="M286.0581,138.3562h4.8V111.0574h-4.8v-7.8h19.38a31.0509,31.0509,0,0,1,8.5791.84c5.22,1.62,8.5791,5.76,8.5791,12.06a12.4692,12.4692,0,0,1-6.959,11.76v.12a8.2289,8.2289,0,0,1,.959.6,5.6805,5.6805,0,0,1,1.6807,1.9795l3.3,6.36a2.6958,2.6958,0,0,0,2.76,1.38h1.5v7.8h-7.08c-3.42,0-4.8594-.84-6.06-3.18l-5.22-10.02c-.72-1.3809-1.5-1.86-3.72-1.86h-2.1592v7.26h4.499v7.8H286.0581Zm20.3994-15.6592c3.3594,0,5.459-1.6807,5.459-5.58,0-1.9795-.4795-3.84-2.34-4.74a9.4952,9.4952,0,0,0-4.1387-.72h-3.84v11.04Z"/><path id="_Compound_Path_5" data-name="&lt;Compound Path&gt;" class="cls-1" d="M357.2173,102.5378c7.8594,0,17.2793,2.9395,17.2793,8.3994v6.96h-9.6v-3.12c0-2.16-3.18-3.24-7.08-3.24-7.8594,0-12.4795,4.32-12.4795,12.42,0,7.9795,4.62,13.9189,13.0791,13.9189,2.88,0,7.4395-.72,7.4395-3.1191v-2.94h-6.8994v-7.8h16.499v14.2793c0,6.4209-12.1191,8.58-18.3594,8.58-13.1992,0-22.8584-9.4795-22.8584-22.4395C334.2378,111.5369,343.7778,102.5378,357.2173,102.5378Z"/><path id="_Compound_Path_6" data-name="&lt;Compound Path&gt;" class="cls-1" d="M385.897,138.3562h4.7988V111.0574H385.897v-7.8h33.0586v12.6592h-9v-4.26h-8.52v8.7h12.5391v8.3994H401.436v9h9.24v-4.2607h9v12.66H385.897Z"/><path id="_Compound_Path_7" data-name="&lt;Compound Path&gt;" class="cls-1" d="M430.1,138.3562h4.8008V111.0574H430.1v-7.8H449.481a31.04,31.04,0,0,1,8.5781.84c5.2207,1.62,8.58,5.76,8.58,12.06a12.4676,12.4676,0,0,1-6.959,11.76v.12a8.3115,8.3115,0,0,1,.959.6,5.669,5.669,0,0,1,1.68,1.9795l3.3008,6.36a2.6942,2.6942,0,0,0,2.76,1.38h1.5v7.8h-7.08c-3.42,0-4.8594-.84-6.0586-3.18l-5.2207-10.02c-.7207-1.3809-1.5-1.86-3.7207-1.86h-2.1582v7.26h4.5v7.8H430.1Zm20.4-15.6592c3.3594,0,5.459-1.6807,5.459-5.58,0-1.9795-.48-3.84-2.34-4.74a9.4952,9.4952,0,0,0-4.1387-.72h-3.84v11.04Z"/><path id="_Compound_Path_8" data-name="&lt;Compound Path&gt;" class="cls-1" d="M185.0814,75.85h7.2V34.9021h-7.2V23.2029h30.06c5.0391,0,8.1895.18,11.7891,1.35,6.84,2.4307,11.25,7.83,11.25,15.39,0,5.67-2.61,10.9795-7.65,13.77v.18c7.56,2.34,10.26,8.55,10.26,14.76,0,9.63-6.75,16.1094-14.31,17.999a38.78,38.78,0,0,1-9.6289.9h-31.77Zm31.2295-27.7187c3.96,0,5.6689-2.6992,5.6689-6.209,0-2.25-.8994-4.59-2.97-5.58a10.2756,10.2756,0,0,0-3.96-.54H208.391V48.1316Zm1.35,26.8193a7.29,7.29,0,0,0,2.97-.54c2.5205-1.08,3.87-4.05,3.87-7.02,0-3.87-2.16-6.66-6.75-6.66H208.391v14.22Z"/><path id="_Compound_Path_9" data-name="&lt;Compound Path&gt;" class="cls-1" d="M250.7894,75.85h7.2V34.9021h-7.2V23.2029h30.5088V34.9021H274.099V75.85h7.1992v11.7H250.7894Z"/><path id="_Compound_Path_10" data-name="&lt;Compound Path&gt;" class="cls-1" d="M305.2474,75.85h7.2V35.8025h-7.65v9.09h-13.499V23.2029h58.4072V44.8923h-13.499v-9.09H328.557V75.85h7.1992v11.7H305.2474Z"/><path id="_Compound_Path_11" data-name="&lt;Compound Path&gt;" class="cls-1" d="M360.7054,75.85h7.2V34.9021h-7.2V23.2029h49.5889V42.1921h-13.5v-6.39H384.015v13.05h18.81V61.4509h-18.81v13.5h13.8594v-6.39h13.5V87.5505H360.7054Z"/><path id="_Compound_Path_12" data-name="&lt;Compound Path&gt;" class="cls-1" d="M435.7738,64.6917v4.77c0,3.33,4.23,5.22,9.27,5.22s8.64-1.71,8.64-5.22c0-4.95-7.1094-6.5693-13.8594-9.18-8.7295-3.42-16.9189-7.56-16.9189-19.3486,0-14.3105,11.6992-18.81,23.1289-18.81,10.9795,0,21.8691,4.14,21.8691,12.3291v9.54H453.5033v-4.05c0-2.52-3.42-3.87-7.47-3.87-3.6895,0-6.93,1.08-6.93,4.41,0,4.499,5.31,6.21,11.1592,8.37,9.81,3.3291,19.6191,7.4688,19.6191,19.6191,0,14.6689-12.5986,20.1582-24.8389,20.1582-11.9687,0-23.6689-5.31-23.6689-15.6592V64.6917Z"/><g id="_Group_2" data-name="&lt;Group&gt;"><path id="_Compound_Path_13" data-name="&lt;Compound Path&gt;" class="cls-1" d="M479.8034,4.5876a8.6944,8.6944,0,1,1-8.6944,8.6944,8.6944,8.6944,0,0,1,8.6944-8.6944m0-1.2269a9.9213,9.9213,0,1,0,9.9213,9.9213,9.9325,9.9325,0,0,0-9.9213-9.9213Z"/><g id="_Group_3" data-name="&lt;Group&gt;"><path id="_Compound_Path_14" data-name="&lt;Compound Path&gt;" class="cls-1" d="M475.8349,7.8659a19.4111,19.4111,0,0,1,3.095-.233,5.1965,5.1965,0,0,1,3.461.8985,2.8388,2.8388,0,0,1,.9651,2.2464,2.9913,2.9913,0,0,1-2.03,2.812v.05a2.854,2.854,0,0,1,1.564,2.1633,22.3865,22.3865,0,0,0,.882,3.1281h-2.1134a15.8941,15.8941,0,0,1-.7488-2.6456c-.3161-1.4644-.8486-1.93-2.0133-1.9634H477.865v4.609h-2.03Zm2.03,4.9586H479.08c1.3811,0,2.2464-.7323,2.2464-1.8471,0-1.2311-.8653-1.797-2.1965-1.797a5.8859,5.8859,0,0,0-1.2645.1Z"/></g></g></g></svg>